# This file uses meters as units for non-parametric coordinates.

mtllib trepe.mtl
g default
v 23.900578 -9.998452 -6.404138
v 21.428673 -9.998452 -12.371847
v 17.496439 -9.998452 -17.496433
v 12.371851 -9.998452 -21.428669
v 6.404143 -9.998452 -23.900576
v 0.000003 -9.998452 -24.743698
v -6.404138 -9.998452 -23.900579
v -12.371848 -9.998452 -21.428675
v -17.496439 -9.998452 -17.496441
v -21.428675 -9.998452 -12.371853
v -23.900581 -9.998452 -6.404143
v -24.743704 -9.998452 -0.000001
v -23.900583 -9.998452 6.404141
v -21.428679 -9.998452 12.371851
v -17.496443 -9.998452 17.496441
v -12.371854 -9.998452 21.428679
v -6.404143 -9.998452 23.900585
v -0.000001 -9.998452 24.743708
v 6.404142 -9.998452 23.900587
v 12.371854 -9.998452 21.428680
v 17.496445 -9.998452 17.496447
v 21.428682 -9.998452 12.371856
v 23.900589 -9.998452 6.404144
v 24.743711 -9.998452 0.000000
v 25.607489 -9.998452 -6.861503
v 22.959045 -9.998452 -13.255408
v 18.745983 -9.998452 -18.745979
v 13.255413 -9.998452 -22.959042
v 6.861508 -9.998452 -25.607485
v 0.000003 -9.998452 -26.510822
v -6.861503 -9.998452 -25.607489
v -13.255410 -9.998452 -22.959049
v -18.745983 -9.998452 -18.745987
v -22.959049 -9.998452 -13.255415
v -25.607492 -9.998452 -6.861508
v -26.510828 -9.998452 -0.000002
v -25.607494 -9.998452 6.861506
v -22.959051 -9.998452 13.255413
v -18.745989 -9.998452 18.745987
v -13.255416 -9.998452 22.959051
v -6.861508 -9.998452 25.607496
v -0.000001 -9.998452 26.510832
v 6.861507 -9.998452 25.607498
v 13.255416 -9.998452 22.959055
v 18.745989 -9.998452 18.745991
v 22.959057 -9.998452 13.255418
v 25.607500 -9.998452 6.861509
v 26.510836 -9.998452 0.000000
v 25.607489 -11.765576 -6.861503
v 22.959045 -11.765576 -13.255408
v 18.745983 -11.765576 -18.745979
v 13.255413 -11.765576 -22.959042
v 6.861508 -11.765576 -25.607485
v 0.000003 -11.765576 -26.510822
v -6.861503 -11.765576 -25.607489
v -13.255410 -11.765576 -22.959049
v -18.745983 -11.765576 -18.745987
v -22.959049 -11.765576 -13.255415
v -25.607492 -11.765576 -6.861508
v -26.510828 -11.765576 -0.000002
v -25.607494 -11.765576 6.861506
v -22.959051 -11.765576 13.255413
v -18.745989 -11.765576 18.745987
v -13.255416 -11.765576 22.959051
v -6.861508 -11.765576 25.607496
v -0.000001 -11.765576 26.510832
v 6.861507 -11.765576 25.607498
v 13.255416 -11.765576 22.959055
v 18.745989 -11.765576 18.745991
v 22.959057 -11.765576 13.255418
v 25.607500 -11.765576 6.861509
v 26.510836 -11.765576 0.000000
v 23.900578 -11.765576 -6.404138
v 21.428673 -11.765576 -12.371847
v 17.496439 -11.765576 -17.496433
v 12.371851 -11.765576 -21.428669
v 6.404143 -11.765576 -23.900576
v 0.000003 -11.765576 -24.743698
v -6.404138 -11.765576 -23.900579
v -12.371848 -11.765576 -21.428675
v -17.496439 -11.765576 -17.496441
v -21.428675 -11.765576 -12.371853
v -23.900581 -11.765576 -6.404143
v -24.743704 -11.765576 -0.000001
v -23.900583 -11.765576 6.404141
v -21.428679 -11.765576 12.371851
v -17.496443 -11.765576 17.496441
v -12.371854 -11.765576 21.428679
v -6.404143 -11.765576 23.900585
v -0.000001 -11.765576 24.743708
v 6.404142 -11.765576 23.900587
v 12.371854 -11.765576 21.428680
v 17.496445 -11.765576 17.496447
v 21.428682 -11.765576 12.371856
v 23.900589 -11.765576 6.404144
v 24.743711 -11.765576 0.000000
vt 0.016690 0.582279
vt 0.016696 0.541110
vt 0.027526 0.541154
vt 0.027520 0.582325
vt 0.016675 0.623448
vt 0.027504 0.623496
vt 0.016650 0.664616
vt 0.027480 0.664667
vt 0.016616 0.705785
vt 0.027446 0.705839
vt 0.016574 0.746954
vt 0.027403 0.747010
vt 0.016522 0.788122
vt 0.027351 0.788181
vt 0.016461 0.829291
vt 0.027290 0.829352
vt 0.016392 0.870459
vt 0.027220 0.870523
vt 0.016324 0.911625
vt 0.027137 0.911701
vt 0.016296 0.952766
vt 0.027039 0.952956
vt 0.015930 0.006510
vt 0.026708 0.994990
vt 0.016155 0.047109
vt 0.026983 0.047020
vt 0.016183 0.088253
vt 0.027002 0.088265
vt 0.016261 0.129423
vt 0.027089 0.129443
vt 0.016344 0.170593
vt 0.027173 0.170615
vt 0.016419 0.211761
vt 0.027249 0.211786
vt 0.016486 0.252930
vt 0.027316 0.252957
vt 0.016543 0.294099
vt 0.027373 0.294128
vt 0.016592 0.335267
vt 0.027421 0.335299
vt 0.016631 0.376436
vt 0.027460 0.376470
vt 0.016661 0.417604
vt 0.027490 0.417641
vt 0.016682 0.458773
vt 0.027511 0.458812
vt 0.016694 0.499942
vt 0.027523 0.499983
vt 0.038473 0.541130
vt 0.038466 0.582304
vt 0.038451 0.623477
vt 0.038426 0.664650
vt 0.038393 0.705824
vt 0.038350 0.746997
vt 0.038298 0.788171
vt 0.038236 0.829344
vt 0.038164 0.870518
vt 0.038069 0.911699
vt 0.037889 0.952952
vt 0.037880 0.995117
vt 0.037832 0.046977
vt 0.037933 0.088220
vt 0.038034 0.129396
vt 0.038120 0.170569
vt 0.038196 0.211742
vt 0.038262 0.252916
vt 0.038319 0.294089
vt 0.038368 0.335263
vt 0.038407 0.376436
vt 0.038437 0.417610
vt 0.038458 0.458783
vt 0.038470 0.499957
vt 0.005750 0.541117
vt 0.005743 0.582283
vt 0.005728 0.623450
vt 0.005703 0.664616
vt 0.005670 0.705782
vt 0.005627 0.746948
vt 0.005575 0.788114
vt 0.005514 0.829280
vt 0.005447 0.870445
vt 0.005385 0.911599
vt 0.005348 0.952636
vt 0.004883 0.993061
vt 0.005209 0.047205
vt 0.005239 0.088293
vt 0.005315 0.129455
vt 0.005398 0.170621
vt 0.005473 0.211787
vt 0.005539 0.252953
vt 0.005597 0.294120
vt 0.005645 0.335286
vt 0.005684 0.376452
vt 0.005714 0.417618
vt 0.005735 0.458785
vt 0.005747 0.499951
vt 0.048923 0.993539
vt 0.049027 0.006668
vt 0.004975 0.006678
vt 0.015841 0.993266
vt 0.038166 0.004967
vt 0.026990 0.004883
vt 0.049299 0.499992
vt 0.049302 0.541168
vt 0.049287 0.458816
vt 0.049267 0.417640
vt 0.049236 0.376464
vt 0.049197 0.335288
vt 0.049149 0.294113
vt 0.049092 0.252937
vt 0.049025 0.211761
vt 0.048949 0.170585
vt 0.048862 0.129411
vt 0.048752 0.088243
vt 0.048574 0.047118
vt 0.048720 0.952895
vt 0.048894 0.911750
vt 0.048993 0.870575
vt 0.049066 0.829399
vt 0.049127 0.788223
vt 0.049179 0.747047
vt 0.049222 0.705871
vt 0.049256 0.664695
vt 0.049280 0.623519
vt 0.049296 0.582344
vn 0.000000 1.000000 -0.000000
vn 0.000000 1.000000 0.000000
vn 0.000000 1.000000 -0.000000
vn 0.000000 1.000000 -0.000000
vn 0.000000 1.000000 0.000000
vn 0.000000 1.000000 0.000000
vn 0.000000 1.000000 0.000000
vn 0.000000 1.000000 0.000000
vn 0.000000 1.000000 -0.000000
vn 0.000000 1.000000 -0.000000
vn 0.000000 1.000000 0.000000
vn 0.000000 1.000000 0.000000
vn 0.000000 1.000000 0.000000
vn 0.000000 1.000000 0.000000
vn 0.000000 1.000000 0.000000
vn 0.000000 1.000000 0.000000
vn 0.000000 1.000000 0.000000
vn 0.000000 1.000000 0.000000
vn 0.000000 1.000000 0.000000
vn 0.000000 1.000000 0.000000
vn 0.000000 1.000000 0.000000
vn 0.000000 1.000000 0.000000
vn 0.000000 1.000000 0.000000
vn 0.000000 1.000000 0.000000
vn 0.000000 1.000000 -0.000000
vn 0.000000 1.000000 -0.000000
vn 0.000000 1.000000 -0.000000
vn 0.000000 1.000000 -0.000000
vn 0.000000 1.000000 0.000000
vn 0.000000 1.000000 0.000000
vn 0.000000 1.000000 0.000000
vn 0.000000 1.000000 0.000000
vn 0.000000 1.000000 0.000000
vn 0.000000 1.000000 0.000000
vn 0.000000 1.000000 -0.000000
vn 0.000000 1.000000 -0.000000
vn 0.000000 1.000000 -0.000000
vn 0.000000 1.000000 -0.000000
vn 0.000000 1.000000 -0.000000
vn 0.000000 1.000000 -0.000000
vn 0.000000 1.000000 -0.000000
vn 0.000000 1.000000 -0.000000
vn 0.000000 1.000000 0.000000
vn 0.000000 1.000000 0.000000
vn 0.000000 1.000000 -0.000000
vn 0.000000 1.000000 -0.000000
vn 0.000000 1.000000 -0.000000
vn 0.000000 1.000000 -0.000000
vn 0.866025 0.000000 -0.500000
vn 0.965926 0.000000 -0.258820
vn 0.965926 0.000000 -0.258820
vn 0.866025 0.000000 -0.500000
vn 0.707107 0.000000 -0.707107
vn 0.707107 0.000000 -0.707107
vn 0.500000 0.000000 -0.866025
vn 0.500000 0.000000 -0.866025
vn 0.258819 0.000000 -0.965926
vn 0.258819 0.000000 -0.965926
vn 0.000000 0.000000 -1.000000
vn 0.000000 0.000000 -1.000000
vn -0.258819 0.000000 -0.965926
vn -0.258819 0.000000 -0.965926
vn -0.500000 0.000000 -0.866026
vn -0.500000 0.000000 -0.866026
vn -0.707107 0.000000 -0.707107
vn -0.707107 0.000000 -0.707107
vn -0.866025 0.000000 -0.500000
vn -0.866025 0.000000 -0.500000
vn -0.965926 0.000000 -0.258819
vn -0.965926 0.000000 -0.258819
vn -1.000000 0.000000 -0.000000
vn -1.000000 0.000000 -0.000000
vn -0.965926 0.000000 0.258819
vn -0.965926 0.000000 0.258819
vn -0.866026 0.000000 0.500000
vn -0.866026 0.000000 0.500000
vn -0.707107 0.000000 0.707107
vn -0.707107 0.000000 0.707107
vn -0.500000 0.000000 0.866025
vn -0.500000 0.000000 0.866025
vn -0.258819 0.000000 0.965926
vn -0.258819 0.000000 0.965926
vn -0.000000 0.000000 1.000000
vn -0.000000 0.000000 1.000000
vn 0.258819 0.000000 0.965926
vn 0.258819 0.000000 0.965926
vn 0.500000 0.000000 0.866026
vn 0.500000 0.000000 0.866026
vn 0.707107 0.000000 0.707107
vn 0.707107 0.000000 0.707107
vn 0.866025 0.000000 0.500000
vn 0.866025 0.000000 0.500000
vn 0.965926 0.000000 0.258819
vn 0.965926 0.000000 0.258819
vn 1.000000 0.000000 -0.000001
vn 1.000000 0.000000 -0.000001
vn 0.000000 -1.000000 -0.000000
vn 0.000000 -1.000000 -0.000000
vn 0.000000 -1.000000 -0.000000
vn 0.000000 -1.000000 -0.000000
vn 0.000000 -1.000000 0.000000
vn 0.000000 -1.000000 0.000000
vn 0.000000 -1.000000 0.000000
vn 0.000000 -1.000000 0.000000
vn 0.000000 -1.000000 -0.000000
vn 0.000000 -1.000000 -0.000000
vn 0.000000 -1.000000 0.000000
vn 0.000000 -1.000000 0.000000
vn 0.000000 -1.000000 0.000000
vn 0.000000 -1.000000 0.000000
vn 0.000000 -1.000000 0.000000
vn 0.000000 -1.000000 0.000000
vn 0.000000 -1.000000 0.000000
vn 0.000000 -1.000000 0.000000
vn 0.000000 -1.000000 0.000000
vn 0.000000 -1.000000 0.000000
vn 0.000000 -1.000000 0.000000
vn 0.000000 -1.000000 0.000000
vn 0.000000 -1.000000 0.000000
vn 0.000000 -1.000000 0.000000
vn 0.000000 -1.000000 0.000000
vn 0.000000 -1.000000 0.000000
vn 0.000000 -1.000000 0.000000
vn 0.000000 -1.000000 0.000000
vn 0.000000 -1.000000 0.000000
vn 0.000000 -1.000000 0.000000
vn 0.000000 -1.000000 0.000000
vn 0.000000 -1.000000 0.000000
vn 0.000000 -1.000000 0.000000
vn 0.000000 -1.000000 0.000000
vn 0.000000 -1.000000 -0.000000
vn 0.000000 -1.000000 -0.000000
vn 0.000000 -1.000000 -0.000000
vn 0.000000 -1.000000 -0.000000
vn 0.000000 -1.000000 -0.000000
vn 0.000000 -1.000000 -0.000000
vn 0.000000 -1.000000 -0.000000
vn 0.000000 -1.000000 -0.000000
vn 0.000000 -1.000000 -0.000000
vn 0.000000 -1.000000 -0.000000
vn 0.000000 -1.000000 -0.000000
vn 0.000000 -1.000000 -0.000000
vn 0.000000 -1.000000 -0.000000
vn 0.000000 -1.000000 -0.000000
vn -0.866025 0.000000 0.500000
vn -0.965926 0.000000 0.258820
vn -0.965926 0.000000 0.258820
vn -0.866025 0.000000 0.500000
vn -0.707107 0.000000 0.707107
vn -0.707107 0.000000 0.707107
vn -0.500000 0.000000 0.866025
vn -0.500000 0.000000 0.866025
vn -0.258819 0.000000 0.965926
vn -0.258819 0.000000 0.965926
vn -0.000000 0.000000 1.000000
vn -0.000000 0.000000 1.000000
vn 0.258819 0.000000 0.965926
vn 0.258819 0.000000 0.965926
vn 0.500000 0.000000 0.866026
vn 0.500000 0.000000 0.866026
vn 0.707107 0.000000 0.707107
vn 0.707107 0.000000 0.707107
vn 0.866025 0.000000 0.500000
vn 0.866025 0.000000 0.500000
vn 0.965926 0.000000 0.258819
vn 0.965926 0.000000 0.258819
vn 1.000000 0.000000 0.000000
vn 1.000000 0.000000 0.000000
vn 0.965926 0.000000 -0.258819
vn 0.965926 0.000000 -0.258819
vn 0.866026 0.000000 -0.500000
vn 0.866026 0.000000 -0.500000
vn 0.707107 0.000000 -0.707107
vn 0.707107 0.000000 -0.707107
vn 0.500000 0.000000 -0.866025
vn 0.500000 0.000000 -0.866025
vn 0.258819 0.000000 -0.965926
vn 0.258819 0.000000 -0.965926
vn 0.000000 0.000000 -1.000000
vn 0.000000 0.000000 -1.000000
vn -0.258819 0.000000 -0.965926
vn -0.258819 0.000000 -0.965926
vn -0.500000 0.000000 -0.866026
vn -0.500000 0.000000 -0.866026
vn -0.707107 0.000000 -0.707107
vn -0.707107 0.000000 -0.707107
vn -0.866025 0.000000 -0.500000
vn -0.866025 0.000000 -0.500000
vn -0.965926 0.000000 -0.258819
vn -0.965926 0.000000 -0.258819
vn -1.000000 0.000000 0.000001
vn -1.000000 0.000000 0.000001
s 1
g pTorus3 trepiedi
usemtl initialShadingGroup
f 2/1/1 1/2/2 25/3/3 26/4/4
f 3/5/5 2/1/1 26/4/4 27/6/6
f 4/7/7 3/5/5 27/6/6 28/8/8
f 5/9/9 4/7/7 28/8/8 29/10/10
f 6/11/11 5/9/9 29/10/10 30/12/12
f 7/13/13 6/11/11 30/12/12 31/14/14
f 8/15/15 7/13/13 31/14/14 32/16/16
f 9/17/17 8/15/15 32/16/16 33/18/18
f 10/19/19 9/17/17 33/18/18 34/20/20
f 11/21/21 10/19/19 34/20/20 35/22/22
f 12/100/23 11/21/21 35/22/22 36/24/24
f 13/25/25 12/23/23 36/102/24 37/26/26
f 14/27/27 13/25/25 37/26/26 38/28/28
f 15/29/29 14/27/27 38/28/28 39/30/30
f 16/31/31 15/29/29 39/30/30 40/32/32
f 17/33/33 16/31/31 40/32/32 41/34/34
f 18/35/35 17/33/33 41/34/34 42/36/36
f 19/37/37 18/35/35 42/36/36 43/38/38
f 20/39/39 19/37/37 43/38/38 44/40/40
f 21/41/41 20/39/39 44/40/40 45/42/42
f 22/43/43 21/41/41 45/42/42 46/44/44
f 23/45/45 22/43/43 46/44/44 47/46/46
f 24/47/47 23/45/45 47/46/46 48/48/48
f 1/2/2 24/47/47 48/48/48 25/3/3
s 2
f 26/4/49 25/3/50 49/49/51 50/50/52
f 27/6/53 26/4/49 50/50/52 51/51/54
f 28/8/55 27/6/53 51/51/54 52/52/56
f 29/10/57 28/8/55 52/52/56 53/53/58
f 30/12/59 29/10/57 53/53/58 54/54/60
f 31/14/61 30/12/59 54/54/60 55/55/62
f 32/16/63 31/14/61 55/55/62 56/56/64
f 33/18/65 32/16/63 56/56/64 57/57/66
f 34/20/67 33/18/65 57/57/66 58/58/68
f 35/22/69 34/20/67 58/58/68 59/59/70
f 36/24/71 35/22/69 59/59/70 60/60/72
f 37/26/73 36/102/71 60/101/72 61/61/74
f 38/28/75 37/26/73 61/61/74 62/62/76
f 39/30/77 38/28/75 62/62/76 63/63/78
f 40/32/79 39/30/77 63/63/78 64/64/80
f 41/34/81 40/32/79 64/64/80 65/65/82
f 42/36/83 41/34/81 65/65/82 66/66/84
f 43/38/85 42/36/83 66/66/84 67/67/86
f 44/40/87 43/38/85 67/67/86 68/68/88
f 45/42/89 44/40/87 68/68/88 69/69/90
f 46/44/91 45/42/89 69/69/90 70/70/92
f 47/46/93 46/44/91 70/70/92 71/71/94
f 48/48/95 47/46/93 71/71/94 72/72/96
f 25/3/50 48/48/95 72/72/96 49/49/51
s 3
f 50/50/97 49/49/98 73/104/99 74/125/100
f 51/51/101 50/50/97 74/125/100 75/124/102
f 52/52/103 51/51/101 75/124/102 76/123/104
f 53/53/105 52/52/103 76/123/104 77/122/106
f 54/54/107 53/53/105 77/122/106 78/121/108
f 55/55/109 54/54/107 78/121/108 79/120/110
f 56/56/111 55/55/109 79/120/110 80/119/112
f 57/57/113 56/56/111 80/119/112 81/118/114
f 58/58/115 57/57/113 81/118/114 82/117/116
f 59/59/117 58/58/115 82/117/116 83/116/118
f 60/60/119 59/59/117 83/116/118 84/97/120
f 61/61/121 60/101/119 84/98/120 85/115/122
f 62/62/123 61/61/121 85/115/122 86/114/124
f 63/63/125 62/62/123 86/114/124 87/113/126
f 64/64/127 63/63/125 87/113/126 88/112/128
f 65/65/129 64/64/127 88/112/128 89/111/130
f 66/66/131 65/65/129 89/111/130 90/110/132
f 67/67/133 66/66/131 90/110/132 91/109/134
f 68/68/135 67/67/133 91/109/134 92/108/136
f 69/69/137 68/68/135 92/108/136 93/107/138
f 70/70/139 69/69/137 93/107/138 94/106/140
f 71/71/141 70/70/139 94/106/140 95/105/142
f 72/72/143 71/71/141 95/105/142 96/103/144
f 49/49/98 72/72/143 96/103/144 73/104/99
s 4
f 74/74/145 73/73/146 1/2/147 2/1/148
f 75/75/149 74/74/145 2/1/148 3/5/150
f 76/76/151 75/75/149 3/5/150 4/7/152
f 77/77/153 76/76/151 4/7/152 5/9/154
f 78/78/155 77/77/153 5/9/154 6/11/156
f 79/79/157 78/78/155 6/11/156 7/13/158
f 80/80/159 79/79/157 7/13/158 8/15/160
f 81/81/161 80/80/159 8/15/160 9/17/162
f 82/82/163 81/81/161 9/17/162 10/19/164
f 83/83/165 82/82/163 10/19/164 11/21/166
f 84/84/167 83/83/165 11/21/166 12/100/168
f 85/85/169 84/99/167 12/23/168 13/25/170
f 86/86/171 85/85/169 13/25/170 14/27/172
f 87/87/173 86/86/171 14/27/172 15/29/174
f 88/88/175 87/87/173 15/29/174 16/31/176
f 89/89/177 88/88/175 16/31/176 17/33/178
f 90/90/179 89/89/177 17/33/178 18/35/180
f 91/91/181 90/90/179 18/35/180 19/37/182
f 92/92/183 91/91/181 19/37/182 20/39/184
f 93/93/185 92/92/183 20/39/184 21/41/186
f 94/94/187 93/93/185 21/41/186 22/43/188
f 95/95/189 94/94/187 22/43/188 23/45/190
f 96/96/191 95/95/189 23/45/190 24/47/192
f 73/73/146 96/96/191 24/47/192 1/2/147
g default
v -17.555691 -38.840454 29.186188
v -18.136192 -38.461922 30.191646
v -13.203690 -12.144104 21.648300
v -13.784196 -11.765579 22.653767
v -12.146133 -12.144104 22.258881
v -12.726640 -11.765579 23.264347
v -16.498135 -38.840454 29.796768
v -17.078636 -38.461922 30.802226
vt 0.058909 0.185730
vt 0.051372 0.185730
vt 0.051364 0.012421
vt 0.058901 0.012421
vt 0.073984 0.185729
vt 0.066447 0.185730
vt 0.066438 0.012421
vt 0.073976 0.012420
vt 0.073975 0.004883
vt 0.081512 0.004883
vt 0.081513 0.012420
vt 0.081521 0.185729
vt 0.081521 0.193266
vt 0.073984 0.193266
vn -0.866025 0.000000 -0.500000
vn -0.866025 0.000000 -0.500000
vn -0.866025 0.000000 -0.500000
vn -0.866025 0.000000 -0.500000
vn 0.154986 0.950746 -0.268443
vn 0.154986 0.950746 -0.268443
vn 0.154986 0.950746 -0.268443
vn 0.154986 0.950746 -0.268443
vn 0.866025 0.000000 0.500000
vn 0.866025 0.000000 0.500000
vn 0.866025 0.000000 0.500000
vn 0.866025 0.000000 0.500000
vn -0.154990 -0.950743 0.268450
vn -0.154990 -0.950743 0.268450
vn -0.154990 -0.950743 0.268450
vn -0.154990 -0.950743 0.268450
vn -0.475372 0.309978 0.823368
vn -0.475372 0.309978 0.823368
vn -0.475372 0.309978 0.823368
vn -0.475372 0.309978 0.823368
vn 0.475372 -0.309978 -0.823368
vn 0.475372 -0.309978 -0.823368
vn 0.475372 -0.309978 -0.823368
vn 0.475372 -0.309978 -0.823368
s off
g trepiedi pCube3
usemtl initialShadingGroup
f 97/131/193 98/126/194 100/129/195 99/132/196
f 99/134/197 100/135/198 102/136/199 101/133/200
f 101/133/201 102/136/202 104/137/203 103/130/204
f 103/130/205 104/137/206 98/138/207 97/139/208
f 98/126/209 104/127/210 102/128/211 100/129/212
f 103/130/213 97/131/214 99/132/215 101/133/216
g default
v -16.498135 -38.840454 -29.796768
v -17.078636 -38.461922 -30.802226
v -12.146133 -12.144104 -22.258881
v -12.726640 -11.765579 -23.264347
v -13.203690 -12.144104 -21.648300
v -13.784196 -11.765579 -22.653767
v -17.555691 -38.840454 -29.186188
v -18.136192 -38.461922 -30.191646
vt 0.058909 0.185730
vt 0.051372 0.185730
vt 0.051364 0.012421
vt 0.058901 0.012421
vt 0.073984 0.185729
vt 0.066447 0.185730
vt 0.066438 0.012421
vt 0.073976 0.012420
vt 0.073975 0.004883
vt 0.081512 0.004883
vt 0.081513 0.012420
vt 0.081521 0.185729
vt 0.081521 0.193266
vt 0.073984 0.193266
vn 0.866025 0.000000 -0.500000
vn 0.866025 0.000000 -0.500000
vn 0.866025 0.000000 -0.500000
vn 0.866025 0.000000 -0.500000
vn 0.154986 0.950746 0.268443
vn 0.154986 0.950746 0.268443
vn 0.154986 0.950746 0.268443
vn 0.154986 0.950746 0.268443
vn -0.866025 0.000000 0.500000
vn -0.866025 0.000000 0.500000
vn -0.866025 0.000000 0.500000
vn -0.866025 0.000000 0.500000
vn -0.154990 -0.950743 -0.268450
vn -0.154990 -0.950743 -0.268450
vn -0.154990 -0.950743 -0.268450
vn -0.154990 -0.950743 -0.268450
vn -0.475372 0.309978 -0.823368
vn -0.475372 0.309978 -0.823368
vn -0.475372 0.309978 -0.823368
vn -0.475372 0.309978 -0.823368
vn 0.475372 -0.309978 0.823368
vn 0.475372 -0.309978 0.823368
vn 0.475372 -0.309978 0.823368
vn 0.475372 -0.309978 0.823368
s off
g trepiedi pCube2
usemtl initialShadingGroup
f 105/145/217 106/140/218 108/143/219 107/146/220
f 107/148/221 108/149/222 110/150/223 109/147/224
f 109/147/225 110/150/226 112/151/227 111/144/228
f 111/144/229 112/151/230 106/152/231 105/153/232
f 106/140/233 112/141/234 110/142/235 108/143/236
f 111/144/237 105/145/238 107/146/239 109/147/240
g default
v 34.053825 -38.840454 0.610580
v 35.214828 -38.461922 0.610580
v 25.349823 -12.144104 0.610580
v 26.510836 -11.765579 0.610580
v 25.349823 -12.144104 -0.610580
v 26.510836 -11.765579 -0.610580
v 34.053825 -38.840454 -0.610580
v 35.214828 -38.461922 -0.610580
vt 0.058909 0.185730
vt 0.051372 0.185730
vt 0.051364 0.012421
vt 0.058901 0.012421
vt 0.073984 0.185729
vt 0.066447 0.185730
vt 0.066438 0.012421
vt 0.073976 0.012420
vt 0.073975 0.004883
vt 0.081512 0.004883
vt 0.081513 0.012420
vt 0.081521 0.185729
vt 0.081521 0.193266
vt 0.073984 0.193266
vn 0.000000 0.000000 1.000000
vn 0.000000 0.000000 1.000000
vn 0.000000 0.000000 1.000000
vn 0.000000 0.000000 1.000000
vn -0.309971 0.950746 0.000000
vn -0.309971 0.950746 0.000000
vn -0.309971 0.950746 0.000000
vn -0.309971 0.950746 0.000000
vn 0.000000 0.000000 -1.000000
vn 0.000000 0.000000 -1.000000
vn 0.000000 0.000000 -1.000000
vn 0.000000 0.000000 -1.000000
vn 0.309980 -0.950743 0.000000
vn 0.309980 -0.950743 0.000000
vn 0.309980 -0.950743 0.000000
vn 0.309980 -0.950743 0.000000
vn 0.950744 0.309978 0.000000
vn 0.950744 0.309978 0.000000
vn 0.950744 0.309978 0.000000
vn 0.950744 0.309978 0.000000
vn -0.950744 -0.309978 0.000000
vn -0.950744 -0.309978 0.000000
vn -0.950744 -0.309978 0.000000
vn -0.950744 -0.309978 0.000000
s off
g trepiedi pCube1
usemtl initialShadingGroup
f 113/159/241 114/154/242 116/157/243 115/160/244
f 115/162/245 116/163/246 118/164/247 117/161/248
f 117/161/249 118/164/250 120/165/251 119/158/252
f 119/158/253 120/165/254 114/166/255 113/167/256
f 114/154/257 120/155/258 118/156/259 116/157/260
f 119/158/261 113/159/262 115/160/263 117/161/264
